<svg width="16" height="16" viewBox="0 0 16 16" fill="none" xmlns="http://www.w3.org/2000/svg">
<path fill-rule="evenodd" clip-rule="evenodd" d="M10.6668 2.66659H5.3335C3.86074 2.66659 2.66683 3.86049 2.66683 5.33325V10.6666C2.66683 12.1393 3.86074 13.3333 5.3335 13.3333H10.6668C12.1396 13.3333 13.3335 12.1393 13.3335 10.6666V5.33325C13.3335 3.86049 12.1396 2.66659 10.6668 2.66659ZM5.3335 1.33325C3.12436 1.33325 1.3335 3.12411 1.3335 5.33325V10.6666C1.3335 12.8757 3.12436 14.6666 5.3335 14.6666H10.6668C12.876 14.6666 14.6668 12.8757 14.6668 10.6666V5.33325C14.6668 3.12411 12.876 1.33325 10.6668 1.33325H5.3335Z" fill="#E6E8EC"/>
<path d="M11.3332 5.33333C11.7014 5.33333 11.9998 5.03485 11.9998 4.66667C11.9998 4.29848 11.7014 4 11.3332 4C10.965 4 10.6665 4.29848 10.6665 4.66667C10.6665 5.03485 10.965 5.33333 11.3332 5.33333Z" fill="#E6E8EC"/>
<path fill-rule="evenodd" clip-rule="evenodd" d="M11.3332 8.00008C11.3332 9.84101 9.84077 11.3334 7.99984 11.3334C6.15889 11.3334 4.6665 9.84101 4.6665 8.00008C4.6665 6.15913 6.15889 4.66675 7.99984 4.66675C9.84077 4.66675 11.3332 6.15913 11.3332 8.00008ZM9.99984 8.00008C9.99984 9.10468 9.10444 10.0001 7.99984 10.0001C6.89524 10.0001 5.99984 9.10468 5.99984 8.00008C5.99984 6.89548 6.89524 6.00008 7.99984 6.00008C9.10444 6.00008 9.99984 6.89548 9.99984 8.00008Z" fill="#E6E8EC"/>
</svg>
