<svg width="16" height="16" viewBox="0 0 16 16" fill="none" xmlns="http://www.w3.org/2000/svg">
<g id="Linear / Settings, Fine Tuning / Tuning 2">
<path id="Vector" d="M6.3335 9.33348C7.43807 9.33348 8.3335 10.2289 8.3335 11.3335C8.3335 12.438 7.43807 13.3335 6.3335 13.3335C5.22893 13.3335 4.3335 12.438 4.3335 11.3335C4.3335 10.2289 5.22893 9.33348 6.3335 9.33348Z" stroke="#1B1D23" stroke-width="1.5"/>
<path id="Vector_2" d="M9.6665 2.66649C8.56193 2.66649 7.6665 3.56192 7.6665 4.66649C7.6665 5.77106 8.56193 6.66649 9.6665 6.66649C10.7711 6.66649 11.6665 5.77106 11.6665 4.66649C11.6665 3.56192 10.7711 2.66649 9.6665 2.66649Z" stroke="#1B1D23" stroke-width="1.5"/>
<path id="Vector_3" d="M9 11.3057L14.6667 11.3057" stroke="#1B1D23" stroke-width="1.5" stroke-linecap="round"/>
<path id="Vector_4" d="M7 4.63916L1.33333 4.63916" stroke="#1B1D23" stroke-width="1.5" stroke-linecap="round"/>
<path id="Vector_5" d="M1 11H4" stroke="#1B1D23" stroke-width="1.5" stroke-linecap="round"/>
<path id="Vector_6" d="M14.6665 4.63916L11.9999 4.63916" stroke="#1B1D23" stroke-width="1.5" stroke-linecap="round"/>
</g>
</svg>
