<svg width="25" height="23" viewBox="0 0 25 23" fill="none" xmlns="http://www.w3.org/2000/svg">
<g id="Social_Icons" clip-path="url(#clip0_2092_2121)">
<g id="_x31__stroke">
<g id="Google">
<path id="Vector" fill-rule="evenodd" clip-rule="evenodd" d="M5.503 11.4998C5.503 10.7528 5.63368 10.0366 5.86721 9.36491L1.78185 6.40527C0.985609 7.93891 0.537109 9.66714 0.537109 11.4998C0.537109 13.331 0.985231 15.0579 1.78014 16.5907L5.86324 13.6253C5.63198 12.9567 5.503 12.2431 5.503 11.4998Z" fill="#FBBC05"/>
<path id="Vector_2" fill-rule="evenodd" clip-rule="evenodd" d="M12.6759 4.70458C14.3863 4.70458 15.9313 5.27958 17.1451 6.22042L20.6763 2.875C18.5245 1.09771 15.7657 0 12.6759 0C7.87873 0 3.75586 2.60259 1.78174 6.4055L5.86691 9.36513C6.80823 6.65437 9.49147 4.70458 12.6759 4.70458Z" fill="#EA4335"/>
<path id="Vector_3" fill-rule="evenodd" clip-rule="evenodd" d="M12.6759 18.2953C9.49166 18.2953 6.80842 16.3455 5.8671 13.6348L1.78174 16.5939C3.75586 20.3973 7.87873 22.9999 12.6759 22.9999C15.6366 22.9999 18.4634 22.0025 20.5848 20.1337L16.7071 17.2896C15.6129 17.9435 14.235 18.2953 12.6759 18.2953Z" fill="#34A853"/>
<path id="Vector_4" fill-rule="evenodd" clip-rule="evenodd" d="M24.2627 11.5C24.2627 10.8204 24.1523 10.0886 23.9868 9.40918H12.6758V13.8523H19.1866C18.861 15.3673 17.975 16.5318 16.707 17.2897L20.5848 20.1338C22.8132 18.1716 24.2627 15.2485 24.2627 11.5Z" fill="#4285F4"/>
</g>
</g>
</g>
<defs>
<clipPath id="clip0_2092_2121">
<rect width="24.2432" height="23" fill="white" transform="translate(0.27832)"/>
</clipPath>
</defs>
</svg>
